HIERARCHY
ROOT Model_Hips
{
	OFFSET 0.000000 96.915077 0.000000
	CHANNELS 6 Xposition Yposition Zposition Xrotation Yrotation Zrotation
	JOINT Model_Spine
	{
		OFFSET 0.000000 11.137703 -1.289900
		CHANNELS 3 Xrotation Yrotation Zrotation
		JOINT Model_Spine1
		{
			OFFSET 0.000000 12.993942 -1.504922
			CHANNELS 3 Xrotation Yrotation Zrotation
			JOINT Model_Spine2
			{
				OFFSET 0.000000 14.850220 -1.719911
				CHANNELS 3 Xrotation Yrotation Zrotation
				JOINT Model_Neck
				{
					OFFSET 0.000000 16.706543 -1.934903
					CHANNELS 3 Xrotation Yrotation Zrotation
					JOINT Model_Head
					{
						OFFSET 0.000000 10.471298 2.002100
						CHANNELS 3 Xrotation Yrotation Zrotation
						JOINT Model_HeadTop_End
						{
							OFFSET 0.000000 20.842606 3.985100
							CHANNELS 3 Xrotation Yrotation Zrotation
							End Site
							{
								OFFSET 0.000000 21.220154 0.000000
							}
						}
					}
				}
				JOINT Model_LeftShoulder
				{
					OFFSET 7.008500 14.768600 -1.919946
					CHANNELS 3 Xrotation Yrotation Zrotation
					JOINT Model_LeftArm
					{
						OFFSET 14.126271 -3.718048 0.029937
						CHANNELS 3 Xrotation Yrotation Zrotation
						JOINT Model_LeftForeArm
						{
							OFFSET 28.282801 0.000000 0.000000
							CHANNELS 3 Xrotation Yrotation Zrotation
							JOINT Model_LeftHand
							{
								OFFSET 26.204689 0.000000 0.000000
								CHANNELS 3 Xrotation Yrotation Zrotation
								End Site
								{
									OFFSET 26.204704 0.000000 0.000000
								}
							}
						}
					}
				}
				JOINT Model_RightShoulder
				{
					OFFSET -7.008500 14.768555 -1.949840
					CHANNELS 3 Xrotation Yrotation Zrotation
					JOINT Model_RightArm
					{
						OFFSET -14.126281 -3.718018 -0.029932
						CHANNELS 3 Xrotation Yrotation Zrotation
						JOINT Model_RightForeArm
						{
							OFFSET -28.283798 0.000000 -0.000001
							CHANNELS 3 Xrotation Yrotation Zrotation
							JOINT Model_RightHand
							{
								OFFSET -26.204193 0.000000 -0.000001
								CHANNELS 3 Xrotation Yrotation Zrotation
								End Site
								{
									OFFSET -26.204208 0.000000 -0.000001
								}
							}
						}
					}
				}
			}
		}
	}
	JOINT Model_LeftUpLeg
	{
		OFFSET 8.327700 -6.193199 -0.402800
		CHANNELS 3 Xrotation Yrotation Zrotation
		JOINT Model_LeftLeg
		{
			OFFSET 0.735802 -42.108742 -0.610721
			CHANNELS 3 Xrotation Yrotation Zrotation
			JOINT Model_LeftFoot
			{
				OFFSET -0.735806 -36.833748 -0.172876
				CHANNELS 3 Xrotation Yrotation Zrotation
				JOINT Model_LeftToeBase
				{
					OFFSET -0.565857 -11.977769 16.297714
					CHANNELS 3 Xrotation Yrotation Zrotation
					JOINT Model_LeftToe_End
					{
						OFFSET -0.111712 -0.312793 7.857784
						CHANNELS 3 Xrotation Yrotation Zrotation
						End Site
						{
							OFFSET -0.111712 -0.312793 7.857784
						}
					}
				}
			}
		}
	}
	JOINT Model_RightUpLeg
	{
		OFFSET -8.327700 -6.193199 -0.516500
		CHANNELS 3 Xrotation Yrotation Zrotation
		JOINT Model_RightLeg
		{
			OFFSET -0.735785 -42.108738 -0.434061
			CHANNELS 3 Xrotation Yrotation Zrotation
			JOINT Model_RightFoot
			{
				OFFSET 0.735776 -36.833748 -0.021630
				CHANNELS 3 Xrotation Yrotation Zrotation
				JOINT Model_RightToeBase
				{
					OFFSET 0.565817 -11.977745 15.903093
					CHANNELS 3 Xrotation Yrotation Zrotation
					JOINT Model_RightToe_End
					{
						OFFSET 0.111702 -0.312791 7.811342
						CHANNELS 3 Xrotation Yrotation Zrotation
						End Site
						{
							OFFSET 0.111702 -0.312791 7.811342
						}
					}
				}
			}
		}
	}
}
MOTION
Frames: 5
Frame Time: 0.016667
-0.077883 96.912254 0.349648 -3.368016 3.172168 0.744542 5.850014 0.354205 0.480085 0.649282 0.095946 0.232592 0.649491 0.091569 0.232877 -0.992147 -0.419271 0.071885 -0.991552 -0.420282 0.075770 0.000000 0.000000 0.000000 0.547205 -3.989854 -18.467237 2.383851 -9.415227 -62.125543 -0.000014 -8.283926 0.000026 0.000001 0.000001 0.000002 0.813588 0.322065 17.894633 -1.770076 8.120490 61.368772 0.000007 15.459665 -0.000013 -0.000001 -0.000002 0.000001 -22.848636 3.795267 0.614801 55.270304 2.761047 0.460944 -2.807597 0.283940 -3.463522 -8.575345 -0.286741 1.983092 0.000000 -0.000000 0.000000 1.074360 -9.695447 1.471819 11.041564 -2.263514 1.964514 -8.971408 0.136818 -3.994576 -3.137031 -0.000004 -0.000000 0.000000 -0.000000 0.000000 
-0.099968 96.946663 2.604731 -2.914778 2.636860 1.137248 5.630953 0.955936 -0.044408 0.635701 0.277124 0.157097 0.636405 0.272859 0.156152 -0.997237 -0.463947 0.062351 -0.996400 -0.465364 0.064931 -0.000000 0.000000 0.000000 0.567665 -3.722859 -18.510364 3.945063 -8.567875 -62.686861 -0.000003 -8.128974 -0.000010 0.000001 0.000000 0.000000 0.803437 0.412627 17.757785 -2.586101 9.807052 60.939870 0.000010 17.116652 -0.000028 0.000000 -0.000001 0.000000 -24.569990 3.955848 -0.117703 50.824319 3.729697 0.190695 -3.341352 0.299064 -3.493175 -2.721622 -0.079572 2.170945 0.000001 -0.000001 0.000000 1.896106 -9.876454 1.105393 11.458546 -1.624168 1.906614 -10.466614 0.200740 -4.343181 -3.586351 0.000006 0.000000 0.000000 -0.000001 0.000000 
-0.105608 96.890488 4.855495 -2.462779 2.044111 1.515980 5.447756 1.499411 -0.537449 0.626694 0.441246 0.082923 0.627679 0.437113 0.080876 -1.027126 -0.489459 0.048556 -1.026064 -0.491465 0.050506 -0.000000 -0.000000 -0.000000 0.596146 -3.355351 -18.536831 5.421122 -7.502988 -63.298013 -0.000003 -7.984335 -0.000011 -0.000001 -0.000000 -0.000000 0.790728 0.543650 17.622452 -3.354168 11.547110 60.444381 0.000005 18.814079 -0.000022 0.000002 0.000000 -0.000001 -25.897116 4.207794 -0.696385 45.734547 5.159048 -0.086737 -3.568118 0.295395 -3.437973 -0.836920 -0.000002 -0.000000 -0.000001 -0.000002 0.000000 2.558908 -10.057073 0.730901 12.248904 -0.998179 1.839216 -12.282590 0.311892 -4.914371 -4.116139 -0.000001 0.000003 0.000000 0.000001 0.000000 
-0.090457 96.743996 7.108350 -2.039139 1.432954 1.816346 5.312250 2.010501 -0.933682 0.620636 0.593617 0.020413 0.621780 0.589564 0.017369 -1.069875 -0.503343 0.029879 -1.068613 -0.505897 0.031130 -0.000000 0.000000 -0.000000 0.626130 -2.970610 -18.576120 6.849480 -6.245367 -63.931943 0.000002 -7.828139 0.000033 0.000000 -0.000000 -0.000000 0.776200 0.704345 17.482670 -4.057921 13.234509 59.915703 -0.000001 20.515931 -0.000021 -0.000001 -0.000000 -0.000000 -26.790312 4.484632 -1.111091 39.995399 7.045314 -0.311092 -3.564256 0.274427 -3.275008 -0.837925 -0.000003 0.000000 0.000001 -0.000001 0.000000 3.286839 -10.244951 0.419926 13.043259 -0.393825 1.790816 -14.230918 0.465953 -5.646155 -5.555958 -0.000003 0.000000 0.000000 0.000001 0.000000 
-0.055134 96.510628 9.373459 -1.667484 0.887135 1.992878 5.223079 2.489388 -1.189893 0.619420 0.733411 -0.019322 0.620774 0.729296 -0.023256 -1.112291 -0.516802 0.004785 -1.110852 -0.519837 0.005373 -0.000000 0.000000 0.000000 0.650140 -2.671432 -18.685191 8.263766 -4.895509 -64.527222 -0.000010 -7.649668 -0.000013 -0.000001 0.000000 -0.000000 0.761732 0.868012 17.338061 -4.698292 14.783103 59.363633 -0.000017 22.189495 0.000027 0.000000 0.000001 -0.000000 -27.160531 4.688844 -1.417434 33.447371 9.135386 -0.415049 -3.337325 0.230892 -2.896328 -0.567410 -0.000005 0.000000 0.000000 -0.000001 -0.000000 4.178122 -10.455197 0.212657 13.712907 0.162054 1.780945 -16.180414 0.645047 -6.411027 -7.001314 0.000003 0.000003 0.000001 0.000000 0.000000 
